<?xml version="1.0" standalone="no"?>
<!DOCTYPE svg PUBLIC "-//W3C//DTD SVG 20010904//EN"
 "http://www.w3.org/TR/2001/REC-SVG-20010904/DTD/svg10.dtd">
<svg version="1.0" xmlns="http://www.w3.org/2000/svg"
 width="512.000000pt" height="512.000000pt" viewBox="0 0 512.000000 512.000000"
 preserveAspectRatio="xMidYMid meet">

<g transform="translate(0.000000,512.000000) scale(0.100000,-0.100000)"
fill="#000000" stroke="none">
<path d="M460 1073 c43 -166 103 -268 229 -393 147 -146 292 -216 495 -242 75
-9 117 -9 192 0 203 26 348 96 495 242 126 125 186 227 229 393 l18 67 -213 0
-213 0 -27 -56 c-68 -138 -225 -234 -385 -234 -160 0 -318 96 -386 236 l-26
54 -213 0 -213 0 18 -67z"/>
<path d="M3755 920 c196 -194 229 -223 290 -252 130 -60 295 -48 409 32 23 16
79 67 126 114 l85 86 -120 120 -120 120 -445 0 -445 0 220 -220z"/>
</g>
</svg>
